<?xml version="1.0"?>
<svg version="1.1" id="topsvg"
xmlns="http://www.w3.org/2000/svg" xmlns:xlink="http://www.w3.org/1999/xlink"
xmlns:cml="http://www.xml-cml.org/schema" x="0" y="0" width="200px" height="200px" viewBox="0 0 100 100">
<title>RJN.pdb - Open Babel Depiction</title>
<rect x="0" y="0" width="100" height="100" fill="white"/>
<g transform="translate(0,0)">
<svg width="100" height="100" x="0" y="0" viewBox="0 0 634.256 300"
font-family="sans-serif" stroke="rgb(0,0,0)" stroke-width="2"  stroke-linecap="round">
<line x1="421.1" y1="80.0" x2="397.7" y2="93.5" opacity="1.0" stroke="rgb(0,0,0)"  stroke-width="2.0"/>
<line x1="418.1" y1="80.0" x2="418.1" y2="53.0" opacity="1.0" stroke="rgb(0,0,0)"  stroke-width="2.0"/>
<line x1="424.1" y1="80.0" x2="424.1" y2="53.0" opacity="1.0" stroke="rgb(0,0,0)"  stroke-width="2.0"/>
<line x1="421.1" y1="80.0" x2="444.4" y2="93.5" opacity="1.0" stroke="rgb(0,0,0)"  stroke-width="2.0"/>
<line x1="351.8" y1="80.0" x2="317.1" y2="100.0" opacity="1.0" stroke="rgb(0,0,0)"  stroke-width="2.0"/>
<line x1="351.8" y1="80.0" x2="375.2" y2="93.5" opacity="1.0" stroke="rgb(0,0,0)"  stroke-width="2.0"/>
<line x1="247.8" y1="140.0" x2="213.2" y2="160.0" opacity="1.0" stroke="rgb(0,0,0)"  stroke-width="2.0"/>
<line x1="181.6" y1="220.0" x2="181.6" y2="247.0" opacity="1.0" stroke="rgb(0,0,0)"  stroke-width="2.0"/>
<line x1="175.6" y1="220.0" x2="175.6" y2="247.0" opacity="1.0" stroke="rgb(0,0,0)"  stroke-width="2.0"/>
<line x1="455.7" y1="140.0" x2="490.3" y2="160.0" opacity="1.0" stroke="rgb(0,0,0)"  stroke-width="2.0"/>
<line x1="455.7" y1="140.0" x2="455.7" y2="113.0" opacity="1.0" stroke="rgb(0,0,0)"  stroke-width="2.0"/>
<line x1="351.8" y1="80.0" x2="338.3" y2="56.6" opacity="1.0" stroke="rgb(0,0,0)"  stroke-width="2.0"/>
<line x1="351.8" y1="80.0" x2="365.3" y2="56.6" opacity="1.0" stroke="rgb(0,0,0)"  stroke-width="2.0"/>
<line x1="282.5" y1="80.0" x2="282.5" y2="53.0" opacity="1.0" stroke="rgb(0,0,0)"  stroke-width="2.0"/>
<line x1="247.8" y1="100.0" x2="224.5" y2="86.5" opacity="1.0" stroke="rgb(0,0,0)"  stroke-width="2.0"/>
<line x1="282.5" y1="160.0" x2="282.5" y2="187.0" opacity="1.0" stroke="rgb(0,0,0)"  stroke-width="2.0"/>
<line x1="317.1" y1="140.0" x2="340.5" y2="153.5" opacity="1.0" stroke="rgb(0,0,0)"  stroke-width="2.0"/>
<line x1="109.3" y1="220.0" x2="109.3" y2="247.0" opacity="1.0" stroke="rgb(0,0,0)"  stroke-width="2.0"/>
<line x1="74.6" y1="200.0" x2="51.3" y2="213.5" opacity="1.0" stroke="rgb(0,0,0)"  stroke-width="2.0"/>
<line x1="74.6" y1="160.0" x2="51.3" y2="146.5" opacity="1.0" stroke="rgb(0,0,0)"  stroke-width="2.0"/>
<line x1="109.3" y1="140.0" x2="109.3" y2="113.0" opacity="1.0" stroke="rgb(0,0,0)"  stroke-width="2.0"/>
<line x1="455.7" y1="140.0" x2="442.2" y2="163.4" opacity="1.0" stroke="rgb(0,0,0)"  stroke-width="2.0"/>
<line x1="455.7" y1="140.0" x2="428.7" y2="140.0" opacity="1.0" stroke="rgb(0,0,0)"  stroke-width="2.0"/>
<line x1="490.3" y1="200.0" x2="467.0" y2="213.5" opacity="1.0" stroke="rgb(0,0,0)"  stroke-width="2.0"/>
<line x1="525.0" y1="220.0" x2="525.0" y2="247.0" opacity="1.0" stroke="rgb(0,0,0)"  stroke-width="2.0"/>
<line x1="386.4" y1="113.0" x2="386.4" y2="127.0" opacity="1.0" stroke="rgb(0,0,0)"  stroke-width="2.0"/>
<line x1="224.5" y1="206.5" x2="236.6" y2="213.5" opacity="1.0" stroke="rgb(0,0,0)"  stroke-width="2.0"/>
<line x1="559.6" y1="200.0" x2="583.0" y2="213.5" opacity="1.0" stroke="rgb(0,0,0)"  stroke-width="2.0"/>
<line x1="559.6" y1="160.0" x2="583.0" y2="146.5" opacity="1.0" stroke="rgb(0,0,0)"  stroke-width="2.0"/>
<line x1="525.0" y1="140.0" x2="525.0" y2="113.0" opacity="1.0" stroke="rgb(0,0,0)"  stroke-width="2.0"/>
<line x1="282.5" y1="80.0" x2="317.1" y2="100.0" opacity="1.0" stroke="rgb(0,0,0)"  stroke-width="2.0"/>
<line x1="284.1" y1="89.2" x2="308.3" y2="103.2" opacity="1.0" stroke="rgb(0,0,0)"  stroke-width="2.0"/>
<line x1="317.1" y1="100.0" x2="317.1" y2="140.0" opacity="1.0" stroke="rgb(0,0,0)"  stroke-width="2.0"/>
<line x1="317.1" y1="140.0" x2="282.5" y2="160.0" opacity="1.0" stroke="rgb(0,0,0)"  stroke-width="2.0"/>
<line x1="308.3" y1="136.8" x2="284.1" y2="150.8" opacity="1.0" stroke="rgb(0,0,0)"  stroke-width="2.0"/>
<line x1="282.5" y1="160.0" x2="247.8" y2="140.0" opacity="1.0" stroke="rgb(0,0,0)"  stroke-width="2.0"/>
<line x1="247.8" y1="140.0" x2="247.8" y2="100.0" opacity="1.0" stroke="rgb(0,0,0)"  stroke-width="2.0"/>
<line x1="255.0" y1="134.0" x2="255.0" y2="106.0" opacity="1.0" stroke="rgb(0,0,0)"  stroke-width="2.0"/>
<line x1="247.8" y1="100.0" x2="282.5" y2="80.0" opacity="1.0" stroke="rgb(0,0,0)"  stroke-width="2.0"/>
<line x1="143.9" y1="160.0" x2="167.3" y2="146.5" opacity="1.0" stroke="rgb(0,0,0)"  stroke-width="2.0"/>
<line x1="190.0" y1="146.6" x2="213.2" y2="160.0" opacity="1.0" stroke="rgb(0,0,0)"  stroke-width="2.0"/>
<line x1="188.1" y1="153.8" x2="204.4" y2="163.2" opacity="1.0" stroke="rgb(0,0,0)"  stroke-width="2.0"/>
<line x1="213.2" y1="160.0" x2="213.2" y2="187.0" opacity="1.0" stroke="rgb(0,0,0)"  stroke-width="2.0"/>
<line x1="201.9" y1="206.5" x2="178.6" y2="220.0" opacity="1.0" stroke="rgb(0,0,0)"  stroke-width="2.0"/>
<line x1="178.6" y1="220.0" x2="143.9" y2="200.0" opacity="1.0" stroke="rgb(0,0,0)"  stroke-width="2.0"/>
<line x1="143.9" y1="200.0" x2="143.9" y2="160.0" opacity="1.0" stroke="rgb(0,0,0)"  stroke-width="2.0"/>
<line x1="151.1" y1="194.0" x2="151.1" y2="166.0" opacity="1.0" stroke="rgb(0,0,0)"  stroke-width="2.0"/>
<line x1="74.6" y1="160.0" x2="109.3" y2="140.0" opacity="1.0" stroke="rgb(0,0,0)"  stroke-width="2.0"/>
<line x1="83.4" y1="163.2" x2="107.7" y2="149.2" opacity="1.0" stroke="rgb(0,0,0)"  stroke-width="2.0"/>
<line x1="109.3" y1="140.0" x2="143.9" y2="160.0" opacity="1.0" stroke="rgb(0,0,0)"  stroke-width="2.0"/>
<line x1="143.9" y1="200.0" x2="109.3" y2="220.0" opacity="1.0" stroke="rgb(0,0,0)"  stroke-width="2.0"/>
<line x1="109.3" y1="220.0" x2="74.6" y2="200.0" opacity="1.0" stroke="rgb(0,0,0)"  stroke-width="2.0"/>
<line x1="107.7" y1="210.8" x2="83.4" y2="196.8" opacity="1.0" stroke="rgb(0,0,0)"  stroke-width="2.0"/>
<line x1="74.6" y1="200.0" x2="74.6" y2="160.0" opacity="1.0" stroke="rgb(0,0,0)"  stroke-width="2.0"/>
<line x1="490.3" y1="200.0" x2="490.3" y2="160.0" opacity="1.0" stroke="rgb(0,0,0)"  stroke-width="2.0"/>
<line x1="497.5" y1="194.0" x2="497.5" y2="166.0" opacity="1.0" stroke="rgb(0,0,0)"  stroke-width="2.0"/>
<line x1="490.3" y1="160.0" x2="525.0" y2="140.0" opacity="1.0" stroke="rgb(0,0,0)"  stroke-width="2.0"/>
<line x1="525.0" y1="140.0" x2="559.6" y2="160.0" opacity="1.0" stroke="rgb(0,0,0)"  stroke-width="2.0"/>
<line x1="526.6" y1="149.2" x2="550.8" y2="163.2" opacity="1.0" stroke="rgb(0,0,0)"  stroke-width="2.0"/>
<line x1="559.6" y1="160.0" x2="559.6" y2="200.0" opacity="1.0" stroke="rgb(0,0,0)"  stroke-width="2.0"/>
<line x1="559.6" y1="200.0" x2="525.0" y2="220.0" opacity="1.0" stroke="rgb(0,0,0)"  stroke-width="2.0"/>
<line x1="550.8" y1="196.8" x2="526.6" y2="210.8" opacity="1.0" stroke="rgb(0,0,0)"  stroke-width="2.0"/>
<line x1="525.0" y1="220.0" x2="490.3" y2="200.0" opacity="1.0" stroke="rgb(0,0,0)"  stroke-width="2.0"/>
<text x="34.000000" y="228.000000" fill="rgb(191,191,191)" stroke-width="0" font-weight="bold" font-size="16" >H</text>
<text x="449.692194" y="108.000000" fill="rgb(255,12,12)" stroke-width="0" font-weight="bold" font-size="16" >O</text>
<text x="325.769145" y="53.358984" fill="rgb(191,191,191)" stroke-width="0" font-weight="bold" font-size="16" >H</text>
<text x="365.769145" y="53.358984" fill="rgb(191,191,191)" stroke-width="0" font-weight="bold" font-size="16" >H</text>
<text x="276.487113" y="48.000000" fill="rgb(191,191,191)" stroke-width="0" font-weight="bold" font-size="16" >H</text>
<text x="207.205081" y="88.000000" fill="rgb(191,191,191)" stroke-width="0" font-weight="bold" font-size="16" >H</text>
<text x="276.487113" y="208.000000" fill="rgb(191,191,191)" stroke-width="0" font-weight="bold" font-size="16" >H</text>
<text x="345.769145" y="168.000000" fill="rgb(191,191,191)" stroke-width="0" font-weight="bold" font-size="16" >H</text>
<text x="103.282032" y="268.000000" fill="rgb(191,191,191)" stroke-width="0" font-weight="bold" font-size="16" >H</text>
<text x="172.564065" y="268.000000" fill="rgb(255,12,12)" stroke-width="0" font-weight="bold" font-size="16" >O</text>
<text x="34.000000" y="148.000000" fill="rgb(191,191,191)" stroke-width="0" font-weight="bold" font-size="16" >H</text>
<text x="103.282032" y="108.000000" fill="rgb(191,191,191)" stroke-width="0" font-weight="bold" font-size="16" >H</text>
<text x="429.692194" y="182.641016" fill="rgb(191,191,191)" stroke-width="0" font-weight="bold" font-size="16" >H</text>
<text x="409.692194" y="148.000000" fill="rgb(191,191,191)" stroke-width="0" font-weight="bold" font-size="16" >H</text>
<text x="449.692194" y="228.000000" fill="rgb(191,191,191)" stroke-width="0" font-weight="bold" font-size="16" >H</text>
<text x="518.974226" y="268.000000" fill="rgb(191,191,191)" stroke-width="0" font-weight="bold" font-size="16" >H</text>
<text x="380.410162" y="148.000000" fill="rgb(191,191,191)" stroke-width="0" font-weight="bold" font-size="16" >H</text>
<text x="241.846097" y="228.000000" fill="rgb(191,191,191)" stroke-width="0" font-weight="bold" font-size="16" >H</text>
<text x="588.256258" y="228.000000" fill="rgb(191,191,191)" stroke-width="0" font-weight="bold" font-size="16" >H</text>
<text x="588.256258" y="148.000000" fill="rgb(191,191,191)" stroke-width="0" font-weight="bold" font-size="16" >H</text>
<text x="518.974226" y="108.000000" fill="rgb(191,191,191)" stroke-width="0" font-weight="bold" font-size="16" >H</text>
<text x="380.410162" y="108.000000" fill="rgb(12,12,255)" stroke-width="0" font-weight="bold" font-size="16" >N</text>
<text x="172.564065" y="148.000000" fill="rgb(12,12,255)" stroke-width="0" font-weight="bold" font-size="16" >N</text>
<text x="207.205081" y="208.000000" fill="rgb(12,12,255)" stroke-width="0" font-weight="bold" font-size="16" >N</text>
<text x="415.051178" y="48.000000" fill="rgb(255,12,12)" stroke-width="0" font-weight="bold" font-size="16" >O</text>
<text x="421.051178" y="80.000000" fill="rgb(255,0,0)" stroke-width="0" font-weight="bold" font-size="12" >1</text>
<text x="351.769145" y="80.000000" fill="rgb(255,0,0)" stroke-width="0" font-weight="bold" font-size="12" >2</text>
<text x="317.128129" y="100.000000" fill="rgb(255,0,0)" stroke-width="0" font-weight="bold" font-size="12" >3</text>
<text x="282.487113" y="80.000000" fill="rgb(255,0,0)" stroke-width="0" font-weight="bold" font-size="12" >4</text>
<text x="247.846097" y="100.000000" fill="rgb(255,0,0)" stroke-width="0" font-weight="bold" font-size="12" >5</text>
<text x="247.846097" y="140.000000" fill="rgb(255,0,0)" stroke-width="0" font-weight="bold" font-size="12" >6</text>
<text x="282.487113" y="160.000000" fill="rgb(255,0,0)" stroke-width="0" font-weight="bold" font-size="12" >7</text>
<text x="317.128129" y="140.000000" fill="rgb(255,0,0)" stroke-width="0" font-weight="bold" font-size="12" >8</text>
<text x="213.205081" y="160.000000" fill="rgb(255,0,0)" stroke-width="0" font-weight="bold" font-size="12" >9</text>
<text x="143.923048" y="160.000000" fill="rgb(255,0,0)" stroke-width="0" font-weight="bold" font-size="12" >10</text>
<text x="143.923048" y="200.000000" fill="rgb(255,0,0)" stroke-width="0" font-weight="bold" font-size="12" >11</text>
<text x="109.282032" y="220.000000" fill="rgb(255,0,0)" stroke-width="0" font-weight="bold" font-size="12" >12</text>
<text x="74.641016" y="200.000000" fill="rgb(255,0,0)" stroke-width="0" font-weight="bold" font-size="12" >13</text>
<text x="74.641016" y="160.000000" fill="rgb(255,0,0)" stroke-width="0" font-weight="bold" font-size="12" >14</text>
<text x="109.282032" y="140.000000" fill="rgb(255,0,0)" stroke-width="0" font-weight="bold" font-size="12" >15</text>
<text x="178.564065" y="220.000000" fill="rgb(255,0,0)" stroke-width="0" font-weight="bold" font-size="12" >16</text>
<text x="455.692194" y="140.000000" fill="rgb(255,0,0)" stroke-width="0" font-weight="bold" font-size="12" >17</text>
<text x="490.333210" y="160.000000" fill="rgb(255,0,0)" stroke-width="0" font-weight="bold" font-size="12" >18</text>
<text x="490.333210" y="200.000000" fill="rgb(255,0,0)" stroke-width="0" font-weight="bold" font-size="12" >19</text>
<text x="524.974226" y="220.000000" fill="rgb(255,0,0)" stroke-width="0" font-weight="bold" font-size="12" >20</text>
<text x="386.410162" y="100.000000" fill="rgb(255,0,0)" stroke-width="0" font-weight="bold" font-size="12" >21</text>
<text x="178.564065" y="140.000000" fill="rgb(255,0,0)" stroke-width="0" font-weight="bold" font-size="12" >22</text>
<text x="213.205081" y="200.000000" fill="rgb(255,0,0)" stroke-width="0" font-weight="bold" font-size="12" >23</text>
<text x="421.051178" y="40.000000" fill="rgb(255,0,0)" stroke-width="0" font-weight="bold" font-size="12" >24</text>
<text x="178.564065" y="260.000000" fill="rgb(255,0,0)" stroke-width="0" font-weight="bold" font-size="12" >25</text>
<text x="455.692194" y="100.000000" fill="rgb(255,0,0)" stroke-width="0" font-weight="bold" font-size="12" >26</text>
<text x="559.615242" y="200.000000" fill="rgb(255,0,0)" stroke-width="0" font-weight="bold" font-size="12" >27</text>
<text x="559.615242" y="160.000000" fill="rgb(255,0,0)" stroke-width="0" font-weight="bold" font-size="12" >28</text>
<text x="524.974226" y="140.000000" fill="rgb(255,0,0)" stroke-width="0" font-weight="bold" font-size="12" >29</text>
<text x="331.769145" y="45.358984" fill="rgb(255,0,0)" stroke-width="0" font-weight="bold" font-size="12" >30</text>
<text x="371.769145" y="45.358984" fill="rgb(255,0,0)" stroke-width="0" font-weight="bold" font-size="12" >31</text>
<text x="282.487113" y="40.000000" fill="rgb(255,0,0)" stroke-width="0" font-weight="bold" font-size="12" >32</text>
<text x="213.205081" y="80.000000" fill="rgb(255,0,0)" stroke-width="0" font-weight="bold" font-size="12" >33</text>
<text x="282.487113" y="200.000000" fill="rgb(255,0,0)" stroke-width="0" font-weight="bold" font-size="12" >34</text>
<text x="351.769145" y="160.000000" fill="rgb(255,0,0)" stroke-width="0" font-weight="bold" font-size="12" >35</text>
<text x="109.282032" y="260.000000" fill="rgb(255,0,0)" stroke-width="0" font-weight="bold" font-size="12" >36</text>
<text x="40.000000" y="220.000000" fill="rgb(255,0,0)" stroke-width="0" font-weight="bold" font-size="12" >37</text>
<text x="40.000000" y="140.000000" fill="rgb(255,0,0)" stroke-width="0" font-weight="bold" font-size="12" >38</text>
<text x="109.282032" y="100.000000" fill="rgb(255,0,0)" stroke-width="0" font-weight="bold" font-size="12" >39</text>
<text x="435.692194" y="174.641016" fill="rgb(255,0,0)" stroke-width="0" font-weight="bold" font-size="12" >40</text>
<text x="415.692194" y="140.000000" fill="rgb(255,0,0)" stroke-width="0" font-weight="bold" font-size="12" >41</text>
<text x="455.692194" y="220.000000" fill="rgb(255,0,0)" stroke-width="0" font-weight="bold" font-size="12" >42</text>
<text x="524.974226" y="260.000000" fill="rgb(255,0,0)" stroke-width="0" font-weight="bold" font-size="12" >43</text>
<text x="386.410162" y="140.000000" fill="rgb(255,0,0)" stroke-width="0" font-weight="bold" font-size="12" >44</text>
<text x="247.846097" y="220.000000" fill="rgb(255,0,0)" stroke-width="0" font-weight="bold" font-size="12" >45</text>
<text x="594.256258" y="220.000000" fill="rgb(255,0,0)" stroke-width="0" font-weight="bold" font-size="12" >46</text>
<text x="594.256258" y="140.000000" fill="rgb(255,0,0)" stroke-width="0" font-weight="bold" font-size="12" >47</text>
<text x="524.974226" y="100.000000" fill="rgb(255,0,0)" stroke-width="0" font-weight="bold" font-size="12" >48</text>
</svg>
</g>
</svg>
