<?xml version="1.0"?>
<svg version="1.1" id="topsvg"
xmlns="http://www.w3.org/2000/svg" xmlns:xlink="http://www.w3.org/1999/xlink"
xmlns:cml="http://www.xml-cml.org/schema" x="0" y="0" width="200px" height="200px" viewBox="0 0 100 100">
<title>***** - Open Babel Depiction</title>
<rect x="0" y="0" width="100" height="100" fill="white"/>
<g transform="translate(0,0)">
<svg width="100" height="100" x="0" y="0" viewBox="0 0 357.128 360"
font-family="sans-serif" stroke="rgb(0,0,0)" stroke-width="2"  stroke-linecap="round">
<line x1="279.5" y1="307.0" x2="279.5" y2="280.0" opacity="1.0" stroke="rgb(0,0,0)"  stroke-width="2.0"/>
<line x1="285.5" y1="307.0" x2="285.5" y2="280.0" opacity="1.0" stroke="rgb(0,0,0)"  stroke-width="2.0"/>
<line x1="282.5" y1="280.0" x2="305.9" y2="266.5" opacity="1.0" stroke="rgb(0,0,0)"  stroke-width="2.0"/>
<line x1="317.1" y1="247.0" x2="317.1" y2="220.0" opacity="1.0" stroke="rgb(0,0,0)"  stroke-width="2.0"/>
<line x1="317.1" y1="220.0" x2="282.5" y2="200.0" opacity="1.0" stroke="rgb(0,0,0)"  stroke-width="2.0"/>
<line x1="213.2" y1="160.0" x2="178.6" y2="140.0" opacity="1.0" stroke="rgb(0,0,0)"  stroke-width="2.0"/>
<line x1="140.9" y1="80.0" x2="140.9" y2="53.0" opacity="1.0" stroke="rgb(0,0,0)"  stroke-width="2.0"/>
<line x1="146.9" y1="80.0" x2="146.9" y2="53.0" opacity="1.0" stroke="rgb(0,0,0)"  stroke-width="2.0"/>
<line x1="282.5" y1="280.0" x2="259.1" y2="266.5" opacity="1.0" stroke="rgb(0,0,0)"  stroke-width="2.0"/>
<line x1="236.6" y1="266.5" x2="213.2" y2="280.0" opacity="1.0" stroke="rgb(0,0,0)"  stroke-width="2.0"/>
<line x1="213.2" y1="280.0" x2="178.6" y2="260.0" opacity="1.0" stroke="rgb(0,0,0)"  stroke-width="2.0"/>
<line x1="247.8" y1="220.0" x2="282.5" y2="200.0" opacity="1.0" stroke="rgb(0,0,0)"  stroke-width="2.0"/>
<line x1="249.4" y1="210.8" x2="273.7" y2="196.8" opacity="1.0" stroke="rgb(0,0,0)"  stroke-width="2.0"/>
<line x1="282.5" y1="200.0" x2="282.5" y2="160.0" opacity="1.0" stroke="rgb(0,0,0)"  stroke-width="2.0"/>
<line x1="282.5" y1="160.0" x2="247.8" y2="140.0" opacity="1.0" stroke="rgb(0,0,0)"  stroke-width="2.0"/>
<line x1="273.7" y1="163.2" x2="249.4" y2="149.2" opacity="1.0" stroke="rgb(0,0,0)"  stroke-width="2.0"/>
<line x1="247.8" y1="140.0" x2="213.2" y2="160.0" opacity="1.0" stroke="rgb(0,0,0)"  stroke-width="2.0"/>
<line x1="213.2" y1="160.0" x2="213.2" y2="200.0" opacity="1.0" stroke="rgb(0,0,0)"  stroke-width="2.0"/>
<line x1="220.4" y1="166.0" x2="220.4" y2="194.0" opacity="1.0" stroke="rgb(0,0,0)"  stroke-width="2.0"/>
<line x1="213.2" y1="200.0" x2="247.8" y2="220.0" opacity="1.0" stroke="rgb(0,0,0)"  stroke-width="2.0"/>
<line x1="178.6" y1="140.0" x2="155.2" y2="153.5" opacity="1.0" stroke="rgb(0,0,0)"  stroke-width="2.0"/>
<line x1="132.5" y1="153.4" x2="109.3" y2="140.0" opacity="1.0" stroke="rgb(0,0,0)"  stroke-width="2.0"/>
<line x1="134.4" y1="146.2" x2="118.1" y2="136.8" opacity="1.0" stroke="rgb(0,0,0)"  stroke-width="2.0"/>
<line x1="109.3" y1="140.0" x2="109.3" y2="100.0" opacity="1.0" stroke="rgb(0,0,0)"  stroke-width="2.0"/>
<line x1="109.3" y1="100.0" x2="143.9" y2="80.0" opacity="1.0" stroke="rgb(0,0,0)"  stroke-width="2.0"/>
<line x1="143.9" y1="80.0" x2="167.3" y2="93.5" opacity="1.0" stroke="rgb(0,0,0)"  stroke-width="2.0"/>
<line x1="178.6" y1="113.2" x2="178.6" y2="140.0" opacity="1.0" stroke="rgb(0,0,0)"  stroke-width="2.0"/>
<line x1="171.4" y1="115.2" x2="171.4" y2="134.0" opacity="1.0" stroke="rgb(0,0,0)"  stroke-width="2.0"/>
<line x1="74.6" y1="160.0" x2="109.3" y2="140.0" opacity="1.0" stroke="rgb(0,0,0)"  stroke-width="2.0"/>
<line x1="109.3" y1="100.0" x2="74.6" y2="80.0" opacity="1.0" stroke="rgb(0,0,0)"  stroke-width="2.0"/>
<line x1="100.5" y1="103.2" x2="76.2" y2="89.2" opacity="1.0" stroke="rgb(0,0,0)"  stroke-width="2.0"/>
<line x1="74.6" y1="80.0" x2="40.0" y2="100.0" opacity="1.0" stroke="rgb(0,0,0)"  stroke-width="2.0"/>
<line x1="40.0" y1="100.0" x2="40.0" y2="140.0" opacity="1.0" stroke="rgb(0,0,0)"  stroke-width="2.0"/>
<line x1="47.2" y1="106.0" x2="47.2" y2="134.0" opacity="1.0" stroke="rgb(0,0,0)"  stroke-width="2.0"/>
<line x1="40.0" y1="140.0" x2="74.6" y2="160.0" opacity="1.0" stroke="rgb(0,0,0)"  stroke-width="2.0"/>
<line x1="143.9" y1="280.0" x2="178.6" y2="260.0" opacity="1.0" stroke="rgb(0,0,0)"  stroke-width="2.0"/>
<line x1="145.5" y1="270.8" x2="169.8" y2="256.8" opacity="1.0" stroke="rgb(0,0,0)"  stroke-width="2.0"/>
<line x1="178.6" y1="260.0" x2="178.6" y2="220.0" opacity="1.0" stroke="rgb(0,0,0)"  stroke-width="2.0"/>
<line x1="178.6" y1="220.0" x2="143.9" y2="200.0" opacity="1.0" stroke="rgb(0,0,0)"  stroke-width="2.0"/>
<line x1="169.8" y1="223.2" x2="145.5" y2="209.2" opacity="1.0" stroke="rgb(0,0,0)"  stroke-width="2.0"/>
<line x1="143.9" y1="200.0" x2="109.3" y2="220.0" opacity="1.0" stroke="rgb(0,0,0)"  stroke-width="2.0"/>
<line x1="109.3" y1="220.0" x2="109.3" y2="260.0" opacity="1.0" stroke="rgb(0,0,0)"  stroke-width="2.0"/>
<line x1="116.5" y1="226.0" x2="116.5" y2="254.0" opacity="1.0" stroke="rgb(0,0,0)"  stroke-width="2.0"/>
<line x1="109.3" y1="260.0" x2="143.9" y2="280.0" opacity="1.0" stroke="rgb(0,0,0)"  stroke-width="2.0"/>
<text x="241.846097" y="268.000000" fill="rgb(255,12,12)" stroke-width="0" font-weight="bold" font-size="16" >O</text>
<text x="172.564065" y="108.000000" fill="rgb(12,12,255)" stroke-width="0" font-weight="bold" font-size="16" >N</text>
<text x="137.923048" y="48.000000" fill="rgb(255,12,12)" stroke-width="0" font-weight="bold" font-size="16" >O</text>
<text x="276.487113" y="328.000000" fill="rgb(255,12,12)" stroke-width="0" font-weight="bold" font-size="16" >O</text>
<text x="137.923048" y="168.000000" fill="rgb(12,12,255)" stroke-width="0" font-weight="bold" font-size="16" >N</text>
<text x="311.128129" y="268.000000" fill="rgb(12,12,255)" stroke-width="0" font-weight="bold" font-size="16" >N</text>
<text x="282.487113" y="320.000000" fill="rgb(255,0,0)" stroke-width="0" font-weight="bold" font-size="12" >1</text>
<text x="282.487113" y="280.000000" fill="rgb(255,0,0)" stroke-width="0" font-weight="bold" font-size="12" >2</text>
<text x="317.128129" y="260.000000" fill="rgb(255,0,0)" stroke-width="0" font-weight="bold" font-size="12" >3</text>
<text x="317.128129" y="220.000000" fill="rgb(255,0,0)" stroke-width="0" font-weight="bold" font-size="12" >4</text>
<text x="282.487113" y="200.000000" fill="rgb(255,0,0)" stroke-width="0" font-weight="bold" font-size="12" >5</text>
<text x="247.846097" y="220.000000" fill="rgb(255,0,0)" stroke-width="0" font-weight="bold" font-size="12" >6</text>
<text x="213.205081" y="200.000000" fill="rgb(255,0,0)" stroke-width="0" font-weight="bold" font-size="12" >7</text>
<text x="213.205081" y="160.000000" fill="rgb(255,0,0)" stroke-width="0" font-weight="bold" font-size="12" >8</text>
<text x="247.846097" y="140.000000" fill="rgb(255,0,0)" stroke-width="0" font-weight="bold" font-size="12" >9</text>
<text x="282.487113" y="160.000000" fill="rgb(255,0,0)" stroke-width="0" font-weight="bold" font-size="12" >10</text>
<text x="178.564065" y="140.000000" fill="rgb(255,0,0)" stroke-width="0" font-weight="bold" font-size="12" >11</text>
<text x="143.923048" y="160.000000" fill="rgb(255,0,0)" stroke-width="0" font-weight="bold" font-size="12" >12</text>
<text x="109.282032" y="140.000000" fill="rgb(255,0,0)" stroke-width="0" font-weight="bold" font-size="12" >13</text>
<text x="74.641016" y="160.000000" fill="rgb(255,0,0)" stroke-width="0" font-weight="bold" font-size="12" >14</text>
<text x="40.000000" y="140.000000" fill="rgb(255,0,0)" stroke-width="0" font-weight="bold" font-size="12" >15</text>
<text x="40.000000" y="100.000000" fill="rgb(255,0,0)" stroke-width="0" font-weight="bold" font-size="12" >16</text>
<text x="74.641016" y="80.000000" fill="rgb(255,0,0)" stroke-width="0" font-weight="bold" font-size="12" >17</text>
<text x="109.282032" y="100.000000" fill="rgb(255,0,0)" stroke-width="0" font-weight="bold" font-size="12" >18</text>
<text x="143.923048" y="80.000000" fill="rgb(255,0,0)" stroke-width="0" font-weight="bold" font-size="12" >19</text>
<text x="143.923048" y="40.000000" fill="rgb(255,0,0)" stroke-width="0" font-weight="bold" font-size="12" >20</text>
<text x="178.564065" y="100.000000" fill="rgb(255,0,0)" stroke-width="0" font-weight="bold" font-size="12" >21</text>
<text x="247.846097" y="260.000000" fill="rgb(255,0,0)" stroke-width="0" font-weight="bold" font-size="12" >22</text>
<text x="213.205081" y="280.000000" fill="rgb(255,0,0)" stroke-width="0" font-weight="bold" font-size="12" >23</text>
<text x="178.564065" y="260.000000" fill="rgb(255,0,0)" stroke-width="0" font-weight="bold" font-size="12" >24</text>
<text x="143.923048" y="280.000000" fill="rgb(255,0,0)" stroke-width="0" font-weight="bold" font-size="12" >25</text>
<text x="109.282032" y="260.000000" fill="rgb(255,0,0)" stroke-width="0" font-weight="bold" font-size="12" >26</text>
<text x="109.282032" y="220.000000" fill="rgb(255,0,0)" stroke-width="0" font-weight="bold" font-size="12" >27</text>
<text x="143.923048" y="200.000000" fill="rgb(255,0,0)" stroke-width="0" font-weight="bold" font-size="12" >28</text>
<text x="178.564065" y="220.000000" fill="rgb(255,0,0)" stroke-width="0" font-weight="bold" font-size="12" >29</text>
</svg>
</g>
</svg>
