<?xml version="1.0"?>
<svg version="1.1" id="topsvg"
xmlns="http://www.w3.org/2000/svg" xmlns:xlink="http://www.w3.org/1999/xlink"
xmlns:cml="http://www.xml-cml.org/schema" x="0" y="0" width="200px" height="200px" viewBox="0 0 100 100">
<title>***** - Open Babel Depiction</title>
<rect x="0" y="0" width="100" height="100" fill="white"/>
<g transform="translate(0,0)">
<svg width="100" height="100" x="0" y="0" viewBox="0 0 461.051 300"
font-family="sans-serif" stroke="rgb(0,0,0)" stroke-width="2"  stroke-linecap="round">
<line x1="77.6" y1="53.0" x2="77.6" y2="80.0" opacity="1.0" stroke="rgb(0,0,0)"  stroke-width="2.0"/>
<line x1="71.6" y1="53.0" x2="71.6" y2="80.0" opacity="1.0" stroke="rgb(0,0,0)"  stroke-width="2.0"/>
<line x1="74.6" y1="80.0" x2="98.0" y2="93.5" opacity="1.0" stroke="rgb(0,0,0)"  stroke-width="2.0"/>
<line x1="120.5" y1="93.5" x2="143.9" y2="80.0" opacity="1.0" stroke="rgb(0,0,0)"  stroke-width="2.0"/>
<line x1="143.9" y1="80.0" x2="178.6" y2="100.0" opacity="1.0" stroke="rgb(0,0,0)"  stroke-width="2.0"/>
<line x1="247.8" y1="140.0" x2="282.5" y2="160.0" opacity="1.0" stroke="rgb(0,0,0)"  stroke-width="2.0"/>
<line x1="320.1" y1="220.0" x2="320.1" y2="247.0" opacity="1.0" stroke="rgb(0,0,0)"  stroke-width="2.0"/>
<line x1="314.1" y1="220.0" x2="314.1" y2="247.0" opacity="1.0" stroke="rgb(0,0,0)"  stroke-width="2.0"/>
<line x1="74.6" y1="80.0" x2="51.3" y2="93.5" opacity="1.0" stroke="rgb(0,0,0)"  stroke-width="2.0"/>
<line x1="40.0" y1="113.0" x2="40.0" y2="140.0" opacity="1.0" stroke="rgb(0,0,0)"  stroke-width="2.0"/>
<line x1="40.0" y1="140.0" x2="74.6" y2="160.0" opacity="1.0" stroke="rgb(0,0,0)"  stroke-width="2.0"/>
<line x1="213.2" y1="80.0" x2="178.6" y2="100.0" opacity="1.0" stroke="rgb(0,0,0)"  stroke-width="2.0"/>
<line x1="211.6" y1="89.2" x2="187.4" y2="103.2" opacity="1.0" stroke="rgb(0,0,0)"  stroke-width="2.0"/>
<line x1="178.6" y1="100.0" x2="178.6" y2="140.0" opacity="1.0" stroke="rgb(0,0,0)"  stroke-width="2.0"/>
<line x1="178.6" y1="140.0" x2="213.2" y2="160.0" opacity="1.0" stroke="rgb(0,0,0)"  stroke-width="2.0"/>
<line x1="187.4" y1="136.8" x2="211.6" y2="150.8" opacity="1.0" stroke="rgb(0,0,0)"  stroke-width="2.0"/>
<line x1="213.2" y1="160.0" x2="247.8" y2="140.0" opacity="1.0" stroke="rgb(0,0,0)"  stroke-width="2.0"/>
<line x1="247.8" y1="140.0" x2="247.8" y2="100.0" opacity="1.0" stroke="rgb(0,0,0)"  stroke-width="2.0"/>
<line x1="240.6" y1="134.0" x2="240.6" y2="106.0" opacity="1.0" stroke="rgb(0,0,0)"  stroke-width="2.0"/>
<line x1="247.8" y1="100.0" x2="213.2" y2="80.0" opacity="1.0" stroke="rgb(0,0,0)"  stroke-width="2.0"/>
<line x1="282.5" y1="160.0" x2="305.9" y2="146.5" opacity="1.0" stroke="rgb(0,0,0)"  stroke-width="2.0"/>
<line x1="328.6" y1="146.6" x2="351.8" y2="160.0" opacity="1.0" stroke="rgb(0,0,0)"  stroke-width="2.0"/>
<line x1="326.7" y1="153.8" x2="343.0" y2="163.2" opacity="1.0" stroke="rgb(0,0,0)"  stroke-width="2.0"/>
<line x1="351.8" y1="160.0" x2="351.8" y2="200.0" opacity="1.0" stroke="rgb(0,0,0)"  stroke-width="2.0"/>
<line x1="351.8" y1="200.0" x2="317.1" y2="220.0" opacity="1.0" stroke="rgb(0,0,0)"  stroke-width="2.0"/>
<line x1="317.1" y1="220.0" x2="293.7" y2="206.5" opacity="1.0" stroke="rgb(0,0,0)"  stroke-width="2.0"/>
<line x1="282.5" y1="186.8" x2="282.5" y2="160.0" opacity="1.0" stroke="rgb(0,0,0)"  stroke-width="2.0"/>
<line x1="289.7" y1="184.8" x2="289.7" y2="166.0" opacity="1.0" stroke="rgb(0,0,0)"  stroke-width="2.0"/>
<line x1="386.4" y1="140.0" x2="351.8" y2="160.0" opacity="1.0" stroke="rgb(0,0,0)"  stroke-width="2.0"/>
<line x1="351.8" y1="200.0" x2="386.4" y2="220.0" opacity="1.0" stroke="rgb(0,0,0)"  stroke-width="2.0"/>
<line x1="360.6" y1="196.8" x2="384.8" y2="210.8" opacity="1.0" stroke="rgb(0,0,0)"  stroke-width="2.0"/>
<line x1="386.4" y1="220.0" x2="421.1" y2="200.0" opacity="1.0" stroke="rgb(0,0,0)"  stroke-width="2.0"/>
<line x1="421.1" y1="200.0" x2="421.1" y2="160.0" opacity="1.0" stroke="rgb(0,0,0)"  stroke-width="2.0"/>
<line x1="413.9" y1="194.0" x2="413.9" y2="166.0" opacity="1.0" stroke="rgb(0,0,0)"  stroke-width="2.0"/>
<line x1="421.1" y1="160.0" x2="386.4" y2="140.0" opacity="1.0" stroke="rgb(0,0,0)"  stroke-width="2.0"/>
<line x1="109.3" y1="140.0" x2="74.6" y2="160.0" opacity="1.0" stroke="rgb(0,0,0)"  stroke-width="2.0"/>
<line x1="107.7" y1="149.2" x2="83.4" y2="163.2" opacity="1.0" stroke="rgb(0,0,0)"  stroke-width="2.0"/>
<line x1="74.6" y1="160.0" x2="74.6" y2="200.0" opacity="1.0" stroke="rgb(0,0,0)"  stroke-width="2.0"/>
<line x1="74.6" y1="200.0" x2="109.3" y2="220.0" opacity="1.0" stroke="rgb(0,0,0)"  stroke-width="2.0"/>
<line x1="83.4" y1="196.8" x2="107.7" y2="210.8" opacity="1.0" stroke="rgb(0,0,0)"  stroke-width="2.0"/>
<line x1="109.3" y1="220.0" x2="143.9" y2="200.0" opacity="1.0" stroke="rgb(0,0,0)"  stroke-width="2.0"/>
<line x1="143.9" y1="200.0" x2="143.9" y2="160.0" opacity="1.0" stroke="rgb(0,0,0)"  stroke-width="2.0"/>
<line x1="136.7" y1="194.0" x2="136.7" y2="166.0" opacity="1.0" stroke="rgb(0,0,0)"  stroke-width="2.0"/>
<line x1="143.9" y1="160.0" x2="109.3" y2="140.0" opacity="1.0" stroke="rgb(0,0,0)"  stroke-width="2.0"/>
<text x="311.128129" y="268.000000" fill="rgb(255,12,12)" stroke-width="0" font-weight="bold" font-size="16" >O</text>
<text x="276.487113" y="208.000000" fill="rgb(12,12,255)" stroke-width="0" font-weight="bold" font-size="16" >N</text>
<text x="311.128129" y="148.000000" fill="rgb(12,12,255)" stroke-width="0" font-weight="bold" font-size="16" >N</text>
<text x="68.641016" y="48.000000" fill="rgb(255,12,12)" stroke-width="0" font-weight="bold" font-size="16" >O</text>
<text x="103.282032" y="108.000000" fill="rgb(12,12,255)" stroke-width="0" font-weight="bold" font-size="16" >N</text>
<text x="34.000000" y="108.000000" fill="rgb(255,12,12)" stroke-width="0" font-weight="bold" font-size="16" >O</text>
<text x="74.641016" y="40.000000" fill="rgb(255,0,0)" stroke-width="0" font-weight="bold" font-size="12" >1</text>
<text x="74.641016" y="80.000000" fill="rgb(255,0,0)" stroke-width="0" font-weight="bold" font-size="12" >2</text>
<text x="40.000000" y="100.000000" fill="rgb(255,0,0)" stroke-width="0" font-weight="bold" font-size="12" >3</text>
<text x="109.282032" y="100.000000" fill="rgb(255,0,0)" stroke-width="0" font-weight="bold" font-size="12" >4</text>
<text x="40.000000" y="140.000000" fill="rgb(255,0,0)" stroke-width="0" font-weight="bold" font-size="12" >5</text>
<text x="143.923048" y="80.000000" fill="rgb(255,0,0)" stroke-width="0" font-weight="bold" font-size="12" >6</text>
<text x="74.641016" y="160.000000" fill="rgb(255,0,0)" stroke-width="0" font-weight="bold" font-size="12" >7</text>
<text x="178.564065" y="100.000000" fill="rgb(255,0,0)" stroke-width="0" font-weight="bold" font-size="12" >8</text>
<text x="109.282032" y="140.000000" fill="rgb(255,0,0)" stroke-width="0" font-weight="bold" font-size="12" >9</text>
<text x="74.641016" y="200.000000" fill="rgb(255,0,0)" stroke-width="0" font-weight="bold" font-size="12" >10</text>
<text x="213.205081" y="80.000000" fill="rgb(255,0,0)" stroke-width="0" font-weight="bold" font-size="12" >11</text>
<text x="178.564065" y="140.000000" fill="rgb(255,0,0)" stroke-width="0" font-weight="bold" font-size="12" >12</text>
<text x="143.923048" y="160.000000" fill="rgb(255,0,0)" stroke-width="0" font-weight="bold" font-size="12" >13</text>
<text x="109.282032" y="220.000000" fill="rgb(255,0,0)" stroke-width="0" font-weight="bold" font-size="12" >14</text>
<text x="247.846097" y="100.000000" fill="rgb(255,0,0)" stroke-width="0" font-weight="bold" font-size="12" >15</text>
<text x="213.205081" y="160.000000" fill="rgb(255,0,0)" stroke-width="0" font-weight="bold" font-size="12" >16</text>
<text x="143.923048" y="200.000000" fill="rgb(255,0,0)" stroke-width="0" font-weight="bold" font-size="12" >17</text>
<text x="247.846097" y="140.000000" fill="rgb(255,0,0)" stroke-width="0" font-weight="bold" font-size="12" >18</text>
<text x="282.487113" y="160.000000" fill="rgb(255,0,0)" stroke-width="0" font-weight="bold" font-size="12" >19</text>
<text x="317.128129" y="140.000000" fill="rgb(255,0,0)" stroke-width="0" font-weight="bold" font-size="12" >20</text>
<text x="282.487113" y="200.000000" fill="rgb(255,0,0)" stroke-width="0" font-weight="bold" font-size="12" >21</text>
<text x="351.769145" y="160.000000" fill="rgb(255,0,0)" stroke-width="0" font-weight="bold" font-size="12" >22</text>
<text x="317.128129" y="220.000000" fill="rgb(255,0,0)" stroke-width="0" font-weight="bold" font-size="12" >23</text>
<text x="386.410162" y="140.000000" fill="rgb(255,0,0)" stroke-width="0" font-weight="bold" font-size="12" >24</text>
<text x="351.769145" y="200.000000" fill="rgb(255,0,0)" stroke-width="0" font-weight="bold" font-size="12" >25</text>
<text x="317.128129" y="260.000000" fill="rgb(255,0,0)" stroke-width="0" font-weight="bold" font-size="12" >26</text>
<text x="421.051178" y="160.000000" fill="rgb(255,0,0)" stroke-width="0" font-weight="bold" font-size="12" >27</text>
<text x="386.410162" y="220.000000" fill="rgb(255,0,0)" stroke-width="0" font-weight="bold" font-size="12" >28</text>
<text x="421.051178" y="200.000000" fill="rgb(255,0,0)" stroke-width="0" font-weight="bold" font-size="12" >29</text>
</svg>
</g>
</svg>
