<?xml version="1.0"?>
<svg version="1.1" id="topsvg"
xmlns="http://www.w3.org/2000/svg" xmlns:xlink="http://www.w3.org/1999/xlink"
xmlns:cml="http://www.xml-cml.org/schema" x="0" y="0" width="200px" height="200px" viewBox="0 0 100 100">
<title>RJN.pdb - Open Babel Depiction</title>
<rect x="0" y="0" width="100" height="100" fill="white"/>
<g transform="translate(0,0)">
<svg width="100" height="100" x="0" y="0" viewBox="0 0 426.41 280"
font-family="sans-serif" stroke="rgb(0,0,0)" stroke-width="2"  stroke-linecap="round">
<line x1="351.8" y1="180.0" x2="351.8" y2="207.0" opacity="1.0" stroke="rgb(0,0,0)"  stroke-width="2.0"/>
<line x1="350.3" y1="177.4" x2="373.7" y2="163.9" opacity="1.0" stroke="rgb(0,0,0)"  stroke-width="2.0"/>
<line x1="353.3" y1="182.6" x2="376.7" y2="169.1" opacity="1.0" stroke="rgb(0,0,0)"  stroke-width="2.0"/>
<line x1="351.8" y1="180.0" x2="328.4" y2="166.5" opacity="1.0" stroke="rgb(0,0,0)"  stroke-width="2.0"/>
<line x1="317.1" y1="240.0" x2="282.5" y2="220.0" opacity="1.0" stroke="rgb(0,0,0)"  stroke-width="2.0"/>
<line x1="317.1" y1="240.0" x2="340.5" y2="226.5" opacity="1.0" stroke="rgb(0,0,0)"  stroke-width="2.0"/>
<line x1="213.2" y1="180.0" x2="178.6" y2="160.0" opacity="1.0" stroke="rgb(0,0,0)"  stroke-width="2.0"/>
<line x1="140.9" y1="100.0" x2="140.9" y2="73.0" opacity="1.0" stroke="rgb(0,0,0)"  stroke-width="2.0"/>
<line x1="146.9" y1="100.0" x2="146.9" y2="73.0" opacity="1.0" stroke="rgb(0,0,0)"  stroke-width="2.0"/>
<line x1="317.1" y1="120.0" x2="282.5" y2="100.0" opacity="1.0" stroke="rgb(0,0,0)"  stroke-width="2.0"/>
<line x1="317.1" y1="120.0" x2="317.1" y2="147.0" opacity="1.0" stroke="rgb(0,0,0)"  stroke-width="2.0"/>
<line x1="247.8" y1="240.0" x2="282.5" y2="220.0" opacity="1.0" stroke="rgb(0,0,0)"  stroke-width="2.0"/>
<line x1="249.4" y1="230.8" x2="273.7" y2="216.8" opacity="1.0" stroke="rgb(0,0,0)"  stroke-width="2.0"/>
<line x1="282.5" y1="220.0" x2="282.5" y2="180.0" opacity="1.0" stroke="rgb(0,0,0)"  stroke-width="2.0"/>
<line x1="282.5" y1="180.0" x2="247.8" y2="160.0" opacity="1.0" stroke="rgb(0,0,0)"  stroke-width="2.0"/>
<line x1="273.7" y1="183.2" x2="249.4" y2="169.2" opacity="1.0" stroke="rgb(0,0,0)"  stroke-width="2.0"/>
<line x1="247.8" y1="160.0" x2="213.2" y2="180.0" opacity="1.0" stroke="rgb(0,0,0)"  stroke-width="2.0"/>
<line x1="213.2" y1="180.0" x2="213.2" y2="220.0" opacity="1.0" stroke="rgb(0,0,0)"  stroke-width="2.0"/>
<line x1="220.4" y1="186.0" x2="220.4" y2="214.0" opacity="1.0" stroke="rgb(0,0,0)"  stroke-width="2.0"/>
<line x1="213.2" y1="220.0" x2="247.8" y2="240.0" opacity="1.0" stroke="rgb(0,0,0)"  stroke-width="2.0"/>
<line x1="109.3" y1="160.0" x2="132.5" y2="173.4" opacity="1.0" stroke="rgb(0,0,0)"  stroke-width="2.0"/>
<line x1="118.1" y1="156.8" x2="134.4" y2="166.2" opacity="1.0" stroke="rgb(0,0,0)"  stroke-width="2.0"/>
<line x1="155.2" y1="173.5" x2="178.6" y2="160.0" opacity="1.0" stroke="rgb(0,0,0)"  stroke-width="2.0"/>
<line x1="178.6" y1="160.0" x2="178.6" y2="133.2" opacity="1.0" stroke="rgb(0,0,0)"  stroke-width="2.0"/>
<line x1="171.4" y1="154.0" x2="171.4" y2="135.2" opacity="1.0" stroke="rgb(0,0,0)"  stroke-width="2.0"/>
<line x1="167.3" y1="113.5" x2="143.9" y2="100.0" opacity="1.0" stroke="rgb(0,0,0)"  stroke-width="2.0"/>
<line x1="143.9" y1="100.0" x2="109.3" y2="120.0" opacity="1.0" stroke="rgb(0,0,0)"  stroke-width="2.0"/>
<line x1="109.3" y1="120.0" x2="109.3" y2="160.0" opacity="1.0" stroke="rgb(0,0,0)"  stroke-width="2.0"/>
<line x1="40.0" y1="160.0" x2="74.6" y2="180.0" opacity="1.0" stroke="rgb(0,0,0)"  stroke-width="2.0"/>
<line x1="48.8" y1="156.8" x2="73.0" y2="170.8" opacity="1.0" stroke="rgb(0,0,0)"  stroke-width="2.0"/>
<line x1="74.6" y1="180.0" x2="109.3" y2="160.0" opacity="1.0" stroke="rgb(0,0,0)"  stroke-width="2.0"/>
<line x1="109.3" y1="120.0" x2="74.6" y2="100.0" opacity="1.0" stroke="rgb(0,0,0)"  stroke-width="2.0"/>
<line x1="74.6" y1="100.0" x2="40.0" y2="120.0" opacity="1.0" stroke="rgb(0,0,0)"  stroke-width="2.0"/>
<line x1="73.0" y1="109.2" x2="48.8" y2="123.2" opacity="1.0" stroke="rgb(0,0,0)"  stroke-width="2.0"/>
<line x1="40.0" y1="120.0" x2="40.0" y2="160.0" opacity="1.0" stroke="rgb(0,0,0)"  stroke-width="2.0"/>
<line x1="247.8" y1="120.0" x2="282.5" y2="100.0" opacity="1.0" stroke="rgb(0,0,0)"  stroke-width="2.0"/>
<line x1="249.4" y1="110.8" x2="273.7" y2="96.8" opacity="1.0" stroke="rgb(0,0,0)"  stroke-width="2.0"/>
<line x1="282.5" y1="100.0" x2="282.5" y2="60.0" opacity="1.0" stroke="rgb(0,0,0)"  stroke-width="2.0"/>
<line x1="282.5" y1="60.0" x2="247.8" y2="40.0" opacity="1.0" stroke="rgb(0,0,0)"  stroke-width="2.0"/>
<line x1="273.7" y1="63.2" x2="249.4" y2="49.2" opacity="1.0" stroke="rgb(0,0,0)"  stroke-width="2.0"/>
<line x1="247.8" y1="40.0" x2="213.2" y2="60.0" opacity="1.0" stroke="rgb(0,0,0)"  stroke-width="2.0"/>
<line x1="213.2" y1="60.0" x2="213.2" y2="100.0" opacity="1.0" stroke="rgb(0,0,0)"  stroke-width="2.0"/>
<line x1="220.4" y1="66.0" x2="220.4" y2="94.0" opacity="1.0" stroke="rgb(0,0,0)"  stroke-width="2.0"/>
<line x1="213.2" y1="100.0" x2="247.8" y2="120.0" opacity="1.0" stroke="rgb(0,0,0)"  stroke-width="2.0"/>
<text x="311.128129" y="168.000000" fill="rgb(255,12,12)" stroke-width="0" font-weight="bold" font-size="16" >O</text>
<text x="137.923048" y="68.000000" fill="rgb(255,12,12)" stroke-width="0" font-weight="bold" font-size="16" >O</text>
<text x="380.410162" y="168.000000" fill="rgb(255,12,12)" stroke-width="0" font-weight="bold" font-size="16" >O</text>
<text x="172.564065" y="128.000000" fill="rgb(12,12,255)" stroke-width="0" font-weight="bold" font-size="16" >N</text>
<text x="137.923048" y="188.000000" fill="rgb(12,12,255)" stroke-width="0" font-weight="bold" font-size="16" >N</text>
<text x="345.769145" y="228.000000" fill="rgb(12,12,255)" stroke-width="0" font-weight="bold" font-size="16" >N</text>
<text x="351.769145" y="180.000000" fill="rgb(255,0,0)" stroke-width="0" font-weight="bold" font-size="12" >1</text>
<text x="317.128129" y="240.000000" fill="rgb(255,0,0)" stroke-width="0" font-weight="bold" font-size="12" >2</text>
<text x="282.487113" y="220.000000" fill="rgb(255,0,0)" stroke-width="0" font-weight="bold" font-size="12" >3</text>
<text x="247.846097" y="240.000000" fill="rgb(255,0,0)" stroke-width="0" font-weight="bold" font-size="12" >4</text>
<text x="213.205081" y="220.000000" fill="rgb(255,0,0)" stroke-width="0" font-weight="bold" font-size="12" >5</text>
<text x="213.205081" y="180.000000" fill="rgb(255,0,0)" stroke-width="0" font-weight="bold" font-size="12" >6</text>
<text x="247.846097" y="160.000000" fill="rgb(255,0,0)" stroke-width="0" font-weight="bold" font-size="12" >7</text>
<text x="282.487113" y="180.000000" fill="rgb(255,0,0)" stroke-width="0" font-weight="bold" font-size="12" >8</text>
<text x="178.564065" y="160.000000" fill="rgb(255,0,0)" stroke-width="0" font-weight="bold" font-size="12" >9</text>
<text x="109.282032" y="160.000000" fill="rgb(255,0,0)" stroke-width="0" font-weight="bold" font-size="12" >10</text>
<text x="109.282032" y="120.000000" fill="rgb(255,0,0)" stroke-width="0" font-weight="bold" font-size="12" >11</text>
<text x="74.641016" y="100.000000" fill="rgb(255,0,0)" stroke-width="0" font-weight="bold" font-size="12" >12</text>
<text x="40.000000" y="120.000000" fill="rgb(255,0,0)" stroke-width="0" font-weight="bold" font-size="12" >13</text>
<text x="40.000000" y="160.000000" fill="rgb(255,0,0)" stroke-width="0" font-weight="bold" font-size="12" >14</text>
<text x="74.641016" y="180.000000" fill="rgb(255,0,0)" stroke-width="0" font-weight="bold" font-size="12" >15</text>
<text x="143.923048" y="100.000000" fill="rgb(255,0,0)" stroke-width="0" font-weight="bold" font-size="12" >16</text>
<text x="317.128129" y="120.000000" fill="rgb(255,0,0)" stroke-width="0" font-weight="bold" font-size="12" >17</text>
<text x="282.487113" y="100.000000" fill="rgb(255,0,0)" stroke-width="0" font-weight="bold" font-size="12" >18</text>
<text x="247.846097" y="120.000000" fill="rgb(255,0,0)" stroke-width="0" font-weight="bold" font-size="12" >19</text>
<text x="213.205081" y="100.000000" fill="rgb(255,0,0)" stroke-width="0" font-weight="bold" font-size="12" >20</text>
<text x="351.769145" y="220.000000" fill="rgb(255,0,0)" stroke-width="0" font-weight="bold" font-size="12" >21</text>
<text x="143.923048" y="180.000000" fill="rgb(255,0,0)" stroke-width="0" font-weight="bold" font-size="12" >22</text>
<text x="178.564065" y="120.000000" fill="rgb(255,0,0)" stroke-width="0" font-weight="bold" font-size="12" >23</text>
<text x="386.410162" y="160.000000" fill="rgb(255,0,0)" stroke-width="0" font-weight="bold" font-size="12" >24</text>
<text x="143.923048" y="60.000000" fill="rgb(255,0,0)" stroke-width="0" font-weight="bold" font-size="12" >25</text>
<text x="317.128129" y="160.000000" fill="rgb(255,0,0)" stroke-width="0" font-weight="bold" font-size="12" >26</text>
<text x="213.205081" y="60.000000" fill="rgb(255,0,0)" stroke-width="0" font-weight="bold" font-size="12" >27</text>
<text x="247.846097" y="40.000000" fill="rgb(255,0,0)" stroke-width="0" font-weight="bold" font-size="12" >28</text>
<text x="282.487113" y="60.000000" fill="rgb(255,0,0)" stroke-width="0" font-weight="bold" font-size="12" >29</text>
</svg>
</g>
</svg>
