<?xml version="1.0"?>
<svg version="1.1" id="topsvg"
xmlns="http://www.w3.org/2000/svg" xmlns:xlink="http://www.w3.org/1999/xlink"
xmlns:cml="http://www.xml-cml.org/schema" x="0" y="0" width="200px" height="200px" viewBox="0 0 100 100">
<title>obj01 - Open Babel Depiction</title>
<rect x="0" y="0" width="100" height="100" fill="white"/>
<g transform="translate(0,0)">
<svg width="100" height="100" x="0" y="0" viewBox="0 0 634.256 300"
font-family="sans-serif" stroke="rgb(0,0,0)" stroke-width="2"  stroke-linecap="round">
<line x1="282.5" y1="220.0" x2="317.1" y2="200.0" opacity="1.0" stroke="rgb(0,0,0)"  stroke-width="2.0"/>
<line x1="386.4" y1="160.0" x2="421.1" y2="140.0" opacity="1.0" stroke="rgb(0,0,0)"  stroke-width="2.0"/>
<line x1="178.6" y1="160.0" x2="143.9" y2="140.0" opacity="1.0" stroke="rgb(0,0,0)"  stroke-width="2.0"/>
<line x1="213.2" y1="220.0" x2="236.6" y2="206.5" opacity="1.0" stroke="rgb(0,0,0)"  stroke-width="2.0"/>
<line x1="282.5" y1="220.0" x2="259.1" y2="206.5" opacity="1.0" stroke="rgb(0,0,0)"  stroke-width="2.0"/>
<line x1="216.2" y1="220.0" x2="216.2" y2="247.0" opacity="1.0" stroke="rgb(0,0,0)"  stroke-width="2.0"/>
<line x1="210.2" y1="220.0" x2="210.2" y2="247.0" opacity="1.0" stroke="rgb(0,0,0)"  stroke-width="2.0"/>
<line x1="452.7" y1="80.0" x2="452.7" y2="53.0" opacity="1.0" stroke="rgb(0,0,0)"  stroke-width="2.0"/>
<line x1="458.7" y1="80.0" x2="458.7" y2="53.0" opacity="1.0" stroke="rgb(0,0,0)"  stroke-width="2.0"/>
<line x1="213.2" y1="220.0" x2="189.8" y2="206.5" opacity="1.0" stroke="rgb(0,0,0)"  stroke-width="2.0"/>
<line x1="178.6" y1="160.0" x2="178.6" y2="187.0" opacity="1.0" stroke="rgb(0,0,0)"  stroke-width="2.0"/>
<line x1="282.5" y1="220.0" x2="296.0" y2="243.4" opacity="1.0" stroke="rgb(0,0,0)"  stroke-width="2.0"/>
<line x1="282.5" y1="220.0" x2="269.0" y2="243.4" opacity="1.0" stroke="rgb(0,0,0)"  stroke-width="2.0"/>
<line x1="351.8" y1="220.0" x2="351.8" y2="247.0" opacity="1.0" stroke="rgb(0,0,0)"  stroke-width="2.0"/>
<line x1="386.4" y1="200.0" x2="409.8" y2="213.5" opacity="1.0" stroke="rgb(0,0,0)"  stroke-width="2.0"/>
<line x1="351.8" y1="140.0" x2="351.8" y2="113.0" opacity="1.0" stroke="rgb(0,0,0)"  stroke-width="2.0"/>
<line x1="317.1" y1="160.0" x2="293.7" y2="146.5" opacity="1.0" stroke="rgb(0,0,0)"  stroke-width="2.0"/>
<line x1="525.0" y1="80.0" x2="525.0" y2="53.0" opacity="1.0" stroke="rgb(0,0,0)"  stroke-width="2.0"/>
<line x1="559.6" y1="100.0" x2="583.0" y2="86.5" opacity="1.0" stroke="rgb(0,0,0)"  stroke-width="2.0"/>
<line x1="559.6" y1="140.0" x2="583.0" y2="153.5" opacity="1.0" stroke="rgb(0,0,0)"  stroke-width="2.0"/>
<line x1="525.0" y1="160.0" x2="525.0" y2="187.0" opacity="1.0" stroke="rgb(0,0,0)"  stroke-width="2.0"/>
<line x1="178.6" y1="160.0" x2="192.1" y2="136.6" opacity="1.0" stroke="rgb(0,0,0)"  stroke-width="2.0"/>
<line x1="178.6" y1="160.0" x2="205.6" y2="160.0" opacity="1.0" stroke="rgb(0,0,0)"  stroke-width="2.0"/>
<line x1="143.9" y1="100.0" x2="167.3" y2="86.5" opacity="1.0" stroke="rgb(0,0,0)"  stroke-width="2.0"/>
<line x1="109.3" y1="80.0" x2="109.3" y2="53.0" opacity="1.0" stroke="rgb(0,0,0)"  stroke-width="2.0"/>
<line x1="247.8" y1="187.0" x2="247.8" y2="173.0" opacity="1.0" stroke="rgb(0,0,0)"  stroke-width="2.0"/>
<line x1="455.7" y1="173.0" x2="455.7" y2="187.0" opacity="1.0" stroke="rgb(0,0,0)"  stroke-width="2.0"/>
<line x1="409.8" y1="93.5" x2="397.7" y2="86.5" opacity="1.0" stroke="rgb(0,0,0)"  stroke-width="2.0"/>
<line x1="74.6" y1="100.0" x2="51.3" y2="86.5" opacity="1.0" stroke="rgb(0,0,0)"  stroke-width="2.0"/>
<line x1="74.6" y1="140.0" x2="51.3" y2="153.5" opacity="1.0" stroke="rgb(0,0,0)"  stroke-width="2.0"/>
<line x1="109.3" y1="160.0" x2="109.3" y2="187.0" opacity="1.0" stroke="rgb(0,0,0)"  stroke-width="2.0"/>
<line x1="351.8" y1="220.0" x2="317.1" y2="200.0" opacity="1.0" stroke="rgb(0,0,0)"  stroke-width="2.0"/>
<line x1="350.2" y1="210.8" x2="325.9" y2="196.8" opacity="1.0" stroke="rgb(0,0,0)"  stroke-width="2.0"/>
<line x1="317.1" y1="200.0" x2="317.1" y2="160.0" opacity="1.0" stroke="rgb(0,0,0)"  stroke-width="2.0"/>
<line x1="317.1" y1="160.0" x2="351.8" y2="140.0" opacity="1.0" stroke="rgb(0,0,0)"  stroke-width="2.0"/>
<line x1="325.9" y1="163.2" x2="350.2" y2="149.2" opacity="1.0" stroke="rgb(0,0,0)"  stroke-width="2.0"/>
<line x1="351.8" y1="140.0" x2="386.4" y2="160.0" opacity="1.0" stroke="rgb(0,0,0)"  stroke-width="2.0"/>
<line x1="386.4" y1="160.0" x2="386.4" y2="200.0" opacity="1.0" stroke="rgb(0,0,0)"  stroke-width="2.0"/>
<line x1="379.2" y1="166.0" x2="379.2" y2="194.0" opacity="1.0" stroke="rgb(0,0,0)"  stroke-width="2.0"/>
<line x1="386.4" y1="200.0" x2="351.8" y2="220.0" opacity="1.0" stroke="rgb(0,0,0)"  stroke-width="2.0"/>
<line x1="421.1" y1="140.0" x2="444.3" y2="153.4" opacity="1.0" stroke="rgb(0,0,0)"  stroke-width="2.0"/>
<line x1="429.8" y1="136.8" x2="446.1" y2="146.2" opacity="1.0" stroke="rgb(0,0,0)"  stroke-width="2.0"/>
<line x1="467.0" y1="153.5" x2="490.3" y2="140.0" opacity="1.0" stroke="rgb(0,0,0)"  stroke-width="2.0"/>
<line x1="490.3" y1="140.0" x2="490.3" y2="100.0" opacity="1.0" stroke="rgb(0,0,0)"  stroke-width="2.0"/>
<line x1="483.1" y1="134.0" x2="483.1" y2="106.0" opacity="1.0" stroke="rgb(0,0,0)"  stroke-width="2.0"/>
<line x1="490.3" y1="100.0" x2="455.7" y2="80.0" opacity="1.0" stroke="rgb(0,0,0)"  stroke-width="2.0"/>
<line x1="455.7" y1="80.0" x2="432.3" y2="93.5" opacity="1.0" stroke="rgb(0,0,0)"  stroke-width="2.0"/>
<line x1="421.1" y1="113.0" x2="421.1" y2="140.0" opacity="1.0" stroke="rgb(0,0,0)"  stroke-width="2.0"/>
<line x1="490.3" y1="140.0" x2="525.0" y2="160.0" opacity="1.0" stroke="rgb(0,0,0)"  stroke-width="2.0"/>
<line x1="525.0" y1="160.0" x2="559.6" y2="140.0" opacity="1.0" stroke="rgb(0,0,0)"  stroke-width="2.0"/>
<line x1="526.6" y1="150.8" x2="550.8" y2="136.8" opacity="1.0" stroke="rgb(0,0,0)"  stroke-width="2.0"/>
<line x1="559.6" y1="140.0" x2="559.6" y2="100.0" opacity="1.0" stroke="rgb(0,0,0)"  stroke-width="2.0"/>
<line x1="559.6" y1="100.0" x2="525.0" y2="80.0" opacity="1.0" stroke="rgb(0,0,0)"  stroke-width="2.0"/>
<line x1="550.8" y1="103.2" x2="526.6" y2="89.2" opacity="1.0" stroke="rgb(0,0,0)"  stroke-width="2.0"/>
<line x1="525.0" y1="80.0" x2="490.3" y2="100.0" opacity="1.0" stroke="rgb(0,0,0)"  stroke-width="2.0"/>
<line x1="143.9" y1="100.0" x2="143.9" y2="140.0" opacity="1.0" stroke="rgb(0,0,0)"  stroke-width="2.0"/>
<line x1="136.7" y1="106.0" x2="136.7" y2="134.0" opacity="1.0" stroke="rgb(0,0,0)"  stroke-width="2.0"/>
<line x1="143.9" y1="140.0" x2="109.3" y2="160.0" opacity="1.0" stroke="rgb(0,0,0)"  stroke-width="2.0"/>
<line x1="109.3" y1="160.0" x2="74.6" y2="140.0" opacity="1.0" stroke="rgb(0,0,0)"  stroke-width="2.0"/>
<line x1="107.7" y1="150.8" x2="83.4" y2="136.8" opacity="1.0" stroke="rgb(0,0,0)"  stroke-width="2.0"/>
<line x1="74.6" y1="140.0" x2="74.6" y2="100.0" opacity="1.0" stroke="rgb(0,0,0)"  stroke-width="2.0"/>
<line x1="74.6" y1="100.0" x2="109.3" y2="80.0" opacity="1.0" stroke="rgb(0,0,0)"  stroke-width="2.0"/>
<line x1="83.4" y1="103.2" x2="107.7" y2="89.2" opacity="1.0" stroke="rgb(0,0,0)"  stroke-width="2.0"/>
<line x1="109.3" y1="80.0" x2="143.9" y2="100.0" opacity="1.0" stroke="rgb(0,0,0)"  stroke-width="2.0"/>
<text x="588.256258" y="168.000000" fill="rgb(191,191,191)" stroke-width="0" font-weight="bold" font-size="16" >H</text>
<text x="172.564065" y="208.000000" fill="rgb(255,12,12)" stroke-width="0" font-weight="bold" font-size="16" >O</text>
<text x="296.487113" y="262.641016" fill="rgb(191,191,191)" stroke-width="0" font-weight="bold" font-size="16" >H</text>
<text x="256.487113" y="262.641016" fill="rgb(191,191,191)" stroke-width="0" font-weight="bold" font-size="16" >H</text>
<text x="345.769145" y="268.000000" fill="rgb(191,191,191)" stroke-width="0" font-weight="bold" font-size="16" >H</text>
<text x="415.051178" y="228.000000" fill="rgb(191,191,191)" stroke-width="0" font-weight="bold" font-size="16" >H</text>
<text x="345.769145" y="108.000000" fill="rgb(191,191,191)" stroke-width="0" font-weight="bold" font-size="16" >H</text>
<text x="276.487113" y="148.000000" fill="rgb(191,191,191)" stroke-width="0" font-weight="bold" font-size="16" >H</text>
<text x="518.974226" y="48.000000" fill="rgb(191,191,191)" stroke-width="0" font-weight="bold" font-size="16" >H</text>
<text x="588.256258" y="88.000000" fill="rgb(191,191,191)" stroke-width="0" font-weight="bold" font-size="16" >H</text>
<text x="449.692194" y="48.000000" fill="rgb(255,12,12)" stroke-width="0" font-weight="bold" font-size="16" >O</text>
<text x="518.974226" y="208.000000" fill="rgb(191,191,191)" stroke-width="0" font-weight="bold" font-size="16" >H</text>
<text x="192.564065" y="133.358984" fill="rgb(191,191,191)" stroke-width="0" font-weight="bold" font-size="16" >H</text>
<text x="212.564065" y="168.000000" fill="rgb(191,191,191)" stroke-width="0" font-weight="bold" font-size="16" >H</text>
<text x="172.564065" y="88.000000" fill="rgb(191,191,191)" stroke-width="0" font-weight="bold" font-size="16" >H</text>
<text x="103.282032" y="48.000000" fill="rgb(191,191,191)" stroke-width="0" font-weight="bold" font-size="16" >H</text>
<text x="241.846097" y="168.000000" fill="rgb(191,191,191)" stroke-width="0" font-weight="bold" font-size="16" >H</text>
<text x="449.692194" y="208.000000" fill="rgb(191,191,191)" stroke-width="0" font-weight="bold" font-size="16" >H</text>
<text x="380.410162" y="88.000000" fill="rgb(191,191,191)" stroke-width="0" font-weight="bold" font-size="16" >H</text>
<text x="34.000000" y="88.000000" fill="rgb(191,191,191)" stroke-width="0" font-weight="bold" font-size="16" >H</text>
<text x="34.000000" y="168.000000" fill="rgb(191,191,191)" stroke-width="0" font-weight="bold" font-size="16" >H</text>
<text x="103.282032" y="208.000000" fill="rgb(191,191,191)" stroke-width="0" font-weight="bold" font-size="16" >H</text>
<text x="241.846097" y="208.000000" fill="rgb(12,12,255)" stroke-width="0" font-weight="bold" font-size="16" >N</text>
<text x="460.492194" y="155.968000" fill="rgb(12,12,255)" stroke-width="0" font-weight="bold" font-size="16" >+</text>
<text x="449.692194" y="168.000000" fill="rgb(12,12,255)" stroke-width="0" font-weight="bold" font-size="16" >N</text>
<text x="415.051178" y="108.000000" fill="rgb(12,12,255)" stroke-width="0" font-weight="bold" font-size="16" >N</text>
<text x="207.205081" y="268.000000" fill="rgb(255,12,12)" stroke-width="0" font-weight="bold" font-size="16" >O</text>
<text x="213.205081" y="220.000000" fill="rgb(255,0,0)" stroke-width="0" font-weight="bold" font-size="12" >1</text>
<text x="282.487113" y="220.000000" fill="rgb(255,0,0)" stroke-width="0" font-weight="bold" font-size="12" >2</text>
<text x="317.128129" y="200.000000" fill="rgb(255,0,0)" stroke-width="0" font-weight="bold" font-size="12" >3</text>
<text x="351.769145" y="220.000000" fill="rgb(255,0,0)" stroke-width="0" font-weight="bold" font-size="12" >4</text>
<text x="386.410162" y="200.000000" fill="rgb(255,0,0)" stroke-width="0" font-weight="bold" font-size="12" >5</text>
<text x="386.410162" y="160.000000" fill="rgb(255,0,0)" stroke-width="0" font-weight="bold" font-size="12" >6</text>
<text x="351.769145" y="140.000000" fill="rgb(255,0,0)" stroke-width="0" font-weight="bold" font-size="12" >7</text>
<text x="317.128129" y="160.000000" fill="rgb(255,0,0)" stroke-width="0" font-weight="bold" font-size="12" >8</text>
<text x="421.051178" y="140.000000" fill="rgb(255,0,0)" stroke-width="0" font-weight="bold" font-size="12" >9</text>
<text x="490.333210" y="140.000000" fill="rgb(255,0,0)" stroke-width="0" font-weight="bold" font-size="12" >10</text>
<text x="490.333210" y="100.000000" fill="rgb(255,0,0)" stroke-width="0" font-weight="bold" font-size="12" >11</text>
<text x="524.974226" y="80.000000" fill="rgb(255,0,0)" stroke-width="0" font-weight="bold" font-size="12" >12</text>
<text x="559.615242" y="100.000000" fill="rgb(255,0,0)" stroke-width="0" font-weight="bold" font-size="12" >13</text>
<text x="559.615242" y="140.000000" fill="rgb(255,0,0)" stroke-width="0" font-weight="bold" font-size="12" >14</text>
<text x="524.974226" y="160.000000" fill="rgb(255,0,0)" stroke-width="0" font-weight="bold" font-size="12" >15</text>
<text x="455.692194" y="80.000000" fill="rgb(255,0,0)" stroke-width="0" font-weight="bold" font-size="12" >16</text>
<text x="178.564065" y="160.000000" fill="rgb(255,0,0)" stroke-width="0" font-weight="bold" font-size="12" >17</text>
<text x="143.923048" y="140.000000" fill="rgb(255,0,0)" stroke-width="0" font-weight="bold" font-size="12" >18</text>
<text x="143.923048" y="100.000000" fill="rgb(255,0,0)" stroke-width="0" font-weight="bold" font-size="12" >19</text>
<text x="109.282032" y="80.000000" fill="rgb(255,0,0)" stroke-width="0" font-weight="bold" font-size="12" >20</text>
<text x="247.846097" y="200.000000" fill="rgb(255,0,0)" stroke-width="0" font-weight="bold" font-size="12" >21</text>
<text x="455.692194" y="160.000000" fill="rgb(255,0,0)" stroke-width="0" font-weight="bold" font-size="12" >22</text>
<text x="421.051178" y="100.000000" fill="rgb(255,0,0)" stroke-width="0" font-weight="bold" font-size="12" >23</text>
<text x="213.205081" y="260.000000" fill="rgb(255,0,0)" stroke-width="0" font-weight="bold" font-size="12" >24</text>
<text x="455.692194" y="40.000000" fill="rgb(255,0,0)" stroke-width="0" font-weight="bold" font-size="12" >25</text>
<text x="178.564065" y="200.000000" fill="rgb(255,0,0)" stroke-width="0" font-weight="bold" font-size="12" >26</text>
<text x="74.641016" y="100.000000" fill="rgb(255,0,0)" stroke-width="0" font-weight="bold" font-size="12" >27</text>
<text x="74.641016" y="140.000000" fill="rgb(255,0,0)" stroke-width="0" font-weight="bold" font-size="12" >28</text>
<text x="109.282032" y="160.000000" fill="rgb(255,0,0)" stroke-width="0" font-weight="bold" font-size="12" >29</text>
<text x="302.487113" y="254.641016" fill="rgb(255,0,0)" stroke-width="0" font-weight="bold" font-size="12" >30</text>
<text x="262.487113" y="254.641016" fill="rgb(255,0,0)" stroke-width="0" font-weight="bold" font-size="12" >31</text>
<text x="351.769145" y="260.000000" fill="rgb(255,0,0)" stroke-width="0" font-weight="bold" font-size="12" >32</text>
<text x="421.051178" y="220.000000" fill="rgb(255,0,0)" stroke-width="0" font-weight="bold" font-size="12" >33</text>
<text x="351.769145" y="100.000000" fill="rgb(255,0,0)" stroke-width="0" font-weight="bold" font-size="12" >34</text>
<text x="282.487113" y="140.000000" fill="rgb(255,0,0)" stroke-width="0" font-weight="bold" font-size="12" >35</text>
<text x="524.974226" y="40.000000" fill="rgb(255,0,0)" stroke-width="0" font-weight="bold" font-size="12" >36</text>
<text x="594.256258" y="80.000000" fill="rgb(255,0,0)" stroke-width="0" font-weight="bold" font-size="12" >37</text>
<text x="594.256258" y="160.000000" fill="rgb(255,0,0)" stroke-width="0" font-weight="bold" font-size="12" >38</text>
<text x="524.974226" y="200.000000" fill="rgb(255,0,0)" stroke-width="0" font-weight="bold" font-size="12" >39</text>
<text x="198.564065" y="125.358984" fill="rgb(255,0,0)" stroke-width="0" font-weight="bold" font-size="12" >40</text>
<text x="218.564065" y="160.000000" fill="rgb(255,0,0)" stroke-width="0" font-weight="bold" font-size="12" >41</text>
<text x="178.564065" y="80.000000" fill="rgb(255,0,0)" stroke-width="0" font-weight="bold" font-size="12" >42</text>
<text x="109.282032" y="40.000000" fill="rgb(255,0,0)" stroke-width="0" font-weight="bold" font-size="12" >43</text>
<text x="247.846097" y="160.000000" fill="rgb(255,0,0)" stroke-width="0" font-weight="bold" font-size="12" >44</text>
<text x="455.692194" y="200.000000" fill="rgb(255,0,0)" stroke-width="0" font-weight="bold" font-size="12" >45</text>
<text x="386.410162" y="80.000000" fill="rgb(255,0,0)" stroke-width="0" font-weight="bold" font-size="12" >46</text>
<text x="40.000000" y="80.000000" fill="rgb(255,0,0)" stroke-width="0" font-weight="bold" font-size="12" >47</text>
<text x="40.000000" y="160.000000" fill="rgb(255,0,0)" stroke-width="0" font-weight="bold" font-size="12" >48</text>
<text x="109.282032" y="200.000000" fill="rgb(255,0,0)" stroke-width="0" font-weight="bold" font-size="12" >49</text>
</svg>
</g>
</svg>
